<?xml version="1.0" encoding="utf-8"?>
<!-- Generator: Adobe Illustrator 16.0.0, SVG Export Plug-In . SVG Version: 6.00 Build 0)  -->
<!DOCTYPE svg PUBLIC "-//W3C//DTD SVG 1.1//EN" "http://www.w3.org/Graphics/SVG/1.1/DTD/svg11.dtd">
<svg version="1.1" id="Layer_1" xmlns="http://www.w3.org/2000/svg" xmlns:xlink="http://www.w3.org/1999/xlink" x="0px" y="0px"
	 width="595.279px" height="841.89px" viewBox="0 0 595.279 841.89" enable-background="new 0 0 595.279 841.89"
	 xml:space="preserve">
<g>
	<rect x="297.64" y="210.117" fill="#FFFFFF" width="285.238" height="421.656"/>
	<path fill="#096D68" d="M582.878,197.715H347.246v-74.41L0,188.009V653.88l347.246,64.705v-74.41h235.632
		c6.855,0,12.401-5.547,12.401-12.402V210.117C595.28,203.262,589.734,197.715,582.878,197.715z M570.477,619.373h-223.23V222.519
		h223.23V619.373z"/>
	<rect x="322.444" y="247.322" fill="#096D68" width="99.213" height="49.606"/>
	<rect x="446.46" y="247.322" fill="#096D68" width="99.213" height="49.606"/>
	<rect x="322.444" y="321.731" fill="#096D68" width="99.213" height="49.607"/>
	<rect x="446.46" y="321.731" fill="#096D68" width="99.213" height="49.607"/>
	<rect x="322.444" y="396.142" fill="#096D68" width="99.213" height="49.606"/>
	<rect x="446.46" y="396.142" fill="#096D68" width="99.213" height="49.606"/>
	<rect x="322.444" y="470.552" fill="#096D68" width="99.213" height="49.605"/>
	<rect x="446.46" y="470.552" fill="#096D68" width="99.213" height="49.605"/>
	<rect x="322.444" y="544.962" fill="#096D68" width="99.213" height="49.605"/>
	<rect x="446.46" y="544.962" fill="#096D68" width="99.213" height="49.605"/>
	<polygon fill="#FFFFFF" points="182.494,433.347 239.483,330.767 238.764,330.367 195.442,333.461 161.222,395.056 
		129.614,338.163 88.694,341.085 139.948,433.347 88.694,525.609 129.614,528.531 161.222,471.638 195.442,533.232 238.764,536.326 
		239.483,535.927 	"/>
</g>
</svg>
